<svg xmlns="http://www.w3.org/2000/svg" viewBox="0 0 790.8 591.32"><defs><style>.cls-1{fill:#333;}.cls-2,.cls-4{fill:#f58220;}.cls-3{fill:#58595b;}.cls-3,.cls-4{fill-rule:evenodd;}</style></defs><title>overwatch_icons-all_heroes</title><g id="main_logo"><g id="ow_icon"><path id="main_logo-2" data-name="main_logo" class="cls-1" d="M546.89,71.41,509,118.06a152.84,152.84,0,0,1,27.82,186.47l-86.56-82.14L411,135V269l85.82,81.44a155.29,155.29,0,0,1-189.2,0L393.44,269V135l-39.21,87.35-86.56,82.14a152.8,152.8,0,0,1,27.82-186.47L257.56,71.41a212.53,212.53,0,0,0-69.84,157.64c0,117.92,96,213.51,214.5,213.51h0c118.47,0,214.5-95.59,214.5-213.51A212.52,212.52,0,0,0,546.89,71.41Z"/><path id="orange_top" class="cls-2" d="M402.22,75.54a154.43,154.43,0,0,1,94.27,31.89l37.87-46.58A214.19,214.19,0,0,0,402.22,15.54h0A214.18,214.18,0,0,0,270.09,60.85L308,107.43A154.48,154.48,0,0,1,402.22,75.54Z"/></g><g id="wordmark"><path id="w" class="cls-3" d="M374,559.15h13.91l15-31.55,13.88,31.55h14.53c4.69-9.66,11.06-21,14.88-30.89l13.31-32.21-20.73.08-13.17,32L411.06,496H396.65l-14.58,31.34-10-23.44a63.87,63.87,0,0,0-3.39-7.9H346.31L374,559.15Z"/><polygon id="h" class="cls-3" points="757.19 496.05 778.37 496.05 778.37 559.9 757.19 559.9 757.19 535.82 717.25 535.82 717.25 559.9 696.06 559.9 696.06 496.05 717.25 496.05 717.25 518.78 757.19 518.78 757.19 496.05 757.19 496.05"/><path id="t" class="cls-3" d="M527.69,512.86h28.45v47h21.28l0-47h22c3.78-5.64,7.89-11.2,11.67-16.83H527.69v16.81Z"/><polygon id="e" class="cls-3" points="188.31 512.05 188.31 559.9 254.6 559.9 254.6 543.31 208.97 543.29 208.97 534.75 240.5 534.75 240.5 521.31 208.97 521.31 208.97 512.7 254.6 512.79 254.6 496.88 198.5 496.88 188.31 512.05 188.31 512.05"/><path id="c" class="cls-3" d="M607.32,517.93V547.6c0,4.31,5.19,12.3,13.72,12.3h44.25c13.3,0,21.18-3.66,21-16.82l-.07-7.26h-21v7.47l-36.38,0V512.86h36.38v6.67h21V511.6c0-7-4.86-15.55-17.69-15.55H621.18c-2.13,4-13.86,19.12-13.86,21.88Z"/><path id="r" class="cls-3" d="M264.51,559.9h22.6V513.7h34.11v9.86l-24.13,0v12.53l26.23,23.83h28.42l-25.86-24.12c13.94.41,16.31-6.8,16.31-13.1v-13.2c0-8.65-6.72-12.69-15.53-12.69H264.51V559.9Z"/><path id="o" class="cls-3" d="M8.87,513.7l.05,32.36c.07,5.44,3.1,9.17,8.42,12.73l14-15.48.16-29.61H71v29.59l-30.42,0-14,16.49,52.68.1c4,0,13.65-5.33,13.65-13.84V513.47c-3-4.75-8.07-12.37-10.89-16.59l-56.19-.09c-10.92,0-17,6-17,16.91Z"/><g id="v"><polygon id="v-2" data-name="v" class="cls-3" points="131.75 559.9 147.28 559.9 189.66 496.8 164.61 496.88 140.65 535.4 115.8 496.88 92.25 496.88 131.75 559.9 131.75 559.9"/><polygon id="orange_v" class="cls-4" points="124.56 495.48 158.46 495.48 141.51 471.76 124.56 495.48 124.56 495.48"/></g><g id="a"><polygon id="a-2" data-name="a" class="cls-3" points="502.62 496.05 485.95 496.05 443.45 559.51 468.5 559.42 494.29 519.4 520.22 560.2 543.77 560.2 502.62 496.05 502.62 496.05"/><polygon id="orange_a" class="cls-4" points="511.32 559.9 477.42 559.9 494.37 583.62 511.32 559.9 511.32 559.9"/></g></g></g></svg>