<svg xmlns="http://www.w3.org/2000/svg" viewBox="0 0 151.06 151.06"><defs><style>.cls-1{fill:#929392;}.cls-2{fill:#ebeaf2;}.cls-3{fill:#ce3830;}.cls-4{fill:#231f20;}.cls-5{fill:#eae9f2;}.cls-6{fill:#343334;}.cls-7{fill:#e5d49a;}</style></defs><title>overwatch_icons-all_heroes</title><g id="Ashe"><rect id="bgc" class="cls-1" x="-0.04" y="-0.04" width="151.15" height="151.15"/><path id="long_hair" class="cls-2" d="M85.81,136.43s11.66-13.11,16.25-25.11,5.49-25.92,5.49-25.92,1,8.17.77,10.34c0,0,2.55-11,1.79-16.85a74.2,74.2,0,0,0-3.45-13.15L89.94,75.53a105.29,105.29,0,0,1,2,19.64c-.06,9.77-1,19.63-5.46,26,0,0,7.5-10.12,9-18.1C95.55,103,96.68,121.13,85.81,136.43Z"/><path id="lips" class="cls-3" d="M80.57,89.89c-.78-.62-2.31-2-3.26-1.36a5.29,5.29,0,0,1-1.17.53,3.34,3.34,0,0,1-2.12,0,5.29,5.29,0,0,1-1.17-.53c-.95-.59-2.48.74-3.26,1.36a3.19,3.19,0,0,1-3,.72A13.58,13.58,0,0,0,70,94.07c2.07,1.4,2,1.5,5.09,1.5s3-.1,5.09-1.5a13.38,13.38,0,0,0,3.38-3.46A3.19,3.19,0,0,1,80.57,89.89Z"/><circle id="mole" class="cls-4" cx="64.38" cy="89.02" r="0.46"/><path id="hair" class="cls-5" d="M49.94,66.34a20.88,20.88,0,0,0,0,6.38c.55,3.24,3.23,8,4,9.07s1.27-.85,1.27-.85a21,21,0,0,0,2.73,8.54,25.8,25.8,0,0,0,4.38,5.29,26.52,26.52,0,0,1-7.23-5.29,34.06,34.06,0,0,0,4.08,11.84s-8.6-4.81-10-10.34-.64-13.62-.64-13.62-1,.47-1.66,7.15c0,0-.89-13.79,1-18.17Z"/><path id="hat" class="cls-6" d="M82.47,80.49a54.82,54.82,0,0,1,7.72-1.64c4.13-.55,13-4.08,17.19-6S125.94,62.72,131.09,60s9.23-4.38,11.4-6.13,5-5.87,5.49-6.64,1-5.66,1-5.66a40.08,40.08,0,0,1-3.57,2.13c-2.56,1.41-3.11,2.13-6.05,2.56s-7.61,1.23-10.34,1.57a53,53,0,0,1-10.85.08c-5.66-.34-11.79-1-14.38-1A36.38,36.38,0,0,0,102,42.47c-.81-1.49-.38-5.11-3.4-4.3,0,0-4.85-11.83-7.36-17.11s-2.81-6.76-5-6.63a23.68,23.68,0,0,0-7.07,2c-2.38,1-2.89,1.19-4.38,1s-1.83.38-1.11.55a19.49,19.49,0,0,1,3.62,1.49c.55.38.17.81-1.23.38a77.19,77.19,0,0,1-7.19-3.36c-2.26-1.11-2.13-2-5.28-1.83s-3-.3-4.3,2.55S52.7,34.17,51,38.77c0,0-1.83-.51-2.08.59S47.68,46.09,46.66,47s-27,3-31.15,3.06A32.55,32.55,0,0,1,7,49.28c-1.74-.47-3.66-1.66-4.25-.39S6.15,54,7.26,54.64s3.78.47,8.29,1.7,31.88,10.94,41,13.83,18.85,6.21,21.62,7.62A24.5,24.5,0,0,1,82.47,80.49Z"/><path id="l-pin" class="cls-7" d="M61.18,50.7a1.75,1.75,0,0,0-1.66,1,3,3,0,0,0-.17,2.71,1.12,1.12,0,0,0,1.21.61c.7,0,1.4-1.59,1.42-2.16S62.2,51,61.18,50.7Z"/><path id="r-pin" class="cls-7" d="M89.77,50.62s1-.19,1.57,1.36.15,3-.79,3.06S89,54,88.81,53.26,88.51,50.7,89.77,50.62Z"/><path id="pin" class="cls-7" d="M90.28,45.1a1.85,1.85,0,0,0,.81-1.52V42.52a.16.16,0,0,0-.24-.13L79.46,48.72a.42.42,0,0,1-.53-.11c-1.25-1.41-3.76-1.46-3.76-1.46s-2.51.05-3.76,1.46a.42.42,0,0,1-.53.11L59.49,42.39a.15.15,0,0,0-.23.13v1.06a1.84,1.84,0,0,0,.8,1.52l9.09,6.16s1.15,1.59-9.58-6.1c0,0-.55,1.29,1.59,3.23,1.59,1.45,5.08,4.31,6.77,5.69a1.14,1.14,0,0,1,.1,1.68l-.24.26a.88.88,0,0,0,0,1.21,1.46,1.46,0,0,0,2.18,0,13.65,13.65,0,0,1,2.65-2.63s-1.09,1.7-1.38,2.11,1.42,1.37,4,1.37,4.23-.95,4-1.37-1.37-2.11-1.37-2.11a13.67,13.67,0,0,1,2.64,2.63,1.46,1.46,0,0,0,2.18,0,.88.88,0,0,0,0-1.21l-.24-.26a1.14,1.14,0,0,1,.1-1.68c1.69-1.38,5.18-4.24,6.77-5.69,2.14-1.94,1.59-3.23,1.59-3.23-10.73,7.69-9.58,6.1-9.58,6.1Z"/></g></svg>