<svg xmlns="http://www.w3.org/2000/svg" viewBox="0 0 151.06 151.06"><defs><style>.cls-1{fill:#f69320;}.cls-2{fill:#2e222e;}.cls-3{fill:#190e0f;}.cls-4{fill:#00b4db;}.cls-5{fill:#0c0809;}</style></defs><title>overwatch_icons-all_heroes</title><g id="Baptiste"><rect id="bgc" class="cls-1" y="-0.04" width="151.15" height="151.15"/><path id="visor_piece" class="cls-2" d="M117.49,66.13l-4.68-.3a20.42,20.42,0,0,1-1.32,3.06c-.64,1.07-2.64,4.3-2.64,4.3l-1.32,2.34V85h6.85l3.24-2.89V78.64l1.57-2V69.15ZM115,81c-.34.3-3.17.19-3.17.19V75.74l1.6-2a.64.64,0,0,1,.9-.08l.67.59Z"/><path id="l-eyebrow" class="cls-3" d="M44.13,74.34a10.2,10.2,0,0,1,6.72-2.89c4,0,8.47,3.06,11.06,4.34a17.27,17.27,0,0,0,8.47,2s-1.61,2.94-4.64,2.94-9-3.49-11-4.43S50.3,74.34,44.13,74.34Z"/><path id="r-eyebrow" class="cls-3" d="M105.79,74.34a10.24,10.24,0,0,0-6.73-2.89c-4,0-8.46,3.06-11.06,4.34a17.27,17.27,0,0,1-8.47,2s1.62,2.94,4.64,2.94,9-3.49,11-4.43S99.62,74.34,105.79,74.34Z"/><path id="visor" class="cls-4" d="M108.77,72.68l1.34.94a1.27,1.27,0,0,1,.53,1v2a1.28,1.28,0,0,1-.36.88l-1.85,1.88v4.34a5.82,5.82,0,0,0,2.21-.8s.81,3.61-1.41,5.66S97.57,94.68,90.3,94.68H82.85a3,3,0,0,1-3-3V82.51a3,3,0,0,1,3-3h1.53S106,78.51,108.77,72.68Z"/><g id="r-sideburn"><polygon class="cls-5" points="108.51 62.85 111.02 65.36 111.02 74.25 108.51 74.25 108.51 62.85"/><polygon class="cls-5" points="108.17 55.62 111.32 58.34 111.32 63.62 108.51 60.77 108.17 55.62"/><path class="cls-5" d="M107.79,53.32a14.27,14.27,0,0,0-.26-3.23l3.79,2.68v3.57Z"/></g><g id="l-sideburn"><path class="cls-5" d="M39.4,65.53l2.47-2.47V76.51l-1.2-2.73a15.11,15.11,0,0,1-1.27-6Z"/><polygon class="cls-5" points="39.4 63.36 41.87 60.98 42.21 56 39.4 58.26 39.4 63.36"/><polygon class="cls-5" points="39.4 56.21 41.28 54.6 39.4 52.04 39.4 56.21"/><path class="cls-5" d="M39.74,48.72l-.13,1.83,3.24,4.91a16.26,16.26,0,0,0,2,2.5l4.64,4.66-2.41-5.31a16.39,16.39,0,0,0-3.68-5.13Z"/></g><path id="goatee" class="cls-5" d="M107.53,97.56A106,106,0,0,1,103.6,110a8,8,0,0,0-.55-1.47,15.25,15.25,0,0,1-1.24,4.28,6,6,0,0,0-.64-1.63c0,1.6-1.79,6.16-1.79,6.16a3.74,3.74,0,0,0-.73-1.28,20.93,20.93,0,0,1-1.82,5.53l-.5-4.42a3.93,3.93,0,0,0-1.75-2.85c-1.18-.79-2.75-1.82-3.56-2.37a9,9,0,0,0-5.42-1.85c-2.43,0-6.9,2.42-6.9,2.42l-1.15,3.83s.83-.53,1.43-1,6.81-2.08,8-1.49a50.49,50.49,0,0,1,4.89,3.8,3.52,3.52,0,0,1,1.26,2.77c0,.49,0,1.11-.07,1.86-.12,2.59-.41,8.46-1.37,9.67-.77,1-2.94,3.36-3.78,4.28a.49.49,0,0,1-.7,0l-1.08-1-.41.85-3-2.49-.59,1-2.9-2.75-.81.68a.48.48,0,0,1-.66,0,24.49,24.49,0,0,0-1.91-1.7v0h0v0a24.49,24.49,0,0,0-1.91,1.7.48.48,0,0,1-.66,0l-.82-.68-2.89,2.75-.59-1-3,2.49-.41-.85-1.08,1a.49.49,0,0,1-.7,0c-.84-.92-3-3.31-3.78-4.28-1-1.21-1.25-7.08-1.38-9.67q0-1.12-.06-1.86a3.52,3.52,0,0,1,1.26-2.77,50.49,50.49,0,0,1,4.89-3.8c1.19-.59,7.4,1,8,1.49s1.43,1,1.43,1L73,112.53s-4.47-2.42-6.9-2.42A9,9,0,0,0,60.66,112c-.81.55-2.38,1.58-3.56,2.37a3.94,3.94,0,0,0-1.76,2.85l-.49,4.42A20.93,20.93,0,0,1,53,116.07a3.74,3.74,0,0,0-.73,1.28s-1.79-4.56-1.79-6.16a6,6,0,0,0-.64,1.63,15.25,15.25,0,0,1-1.24-4.28,8,8,0,0,0-.55,1.47,106,106,0,0,1-3.93-12.45s-.47,13,3.23,19.76,5,9,9,14,7.21,9.26,10.09,11.62,5.73,3,9.36,3h0c3.63,0,6.5-.64,9.36-3s6.13-6.58,10.09-11.62,5.3-7.27,9-14S107.53,97.56,107.53,97.56Z"/><path id="hair" d="M43.17,51l-3.23-3.17A3.13,3.13,0,0,0,40,46a30.17,30.17,0,0,1-2.38-5.05c-.83-2.64-1.37-5.52-.67-8s2-2.59,2.62-2.3.63,0,.44-.54a31.09,31.09,0,0,1-1.69-4.86c-.16-1.27,2.71-5.42,4-6s2.11-.39,2.75.32.92.44.86-.1A2.59,2.59,0,0,1,46.24,17c.83-1.08,1.82-1.37,2.21-2.33s.19-2.46,1.37-3.45a24.73,24.73,0,0,1,5.55-2.61,4.2,4.2,0,0,1,2.91.6c.67.42,2,1.95,2.23,1.85s0-.79,0-1.59a2.27,2.27,0,0,1,2-2.27c1.47-.28,3.57,0,4.15.67s.63,1.63,1.24,1.63-.29-2.07.58-3.38,3.25-1.41,4.78-1.66,5.27-.74,6.1-.16,2.84,2.65,3,3.48-.75,2.69-.37,3.06A2,2,0,0,0,84,10.63c.27-.47,1.34-3.08,2.18-3.21s1.92-.21,6.1.81S98,10,98.14,10.53a5.8,5.8,0,0,1,.24,3.41c-.42,1.25-.7,1.91-.25,2.21s1,.59,1-.28a2.22,2.22,0,0,1,1.4-2.36,4.43,4.43,0,0,1,3.45.3c1.36.59,3.53,1.93,4.11,3.42s1,2.86,0,4.49S106.6,23.6,107,24s.55,1,1.17.62,1.64-1.09,2.3-1,2.1,1.85,2.06,3.59-1.08,2.79-.87,3.3,1.77.55,2.19,1.62a9,9,0,0,1,0,6.32c-1,2.76-1.83,4.55-2.83,5.4a2.34,2.34,0,0,0-.55,2.66c.21.62.83,1.6.1,1.72s-3,.37-3.59.49c0,0-1.11-4.68-2-5.15a10.51,10.51,0,0,1-2.75,1.28c-.89.11-3.61-3.7-4.12-3.87s-3,2.32-4.64,3.25-1.83,1.22-3,.54S88.62,43,87.51,43.11s-5.6,3.78-7.53,4.68-2,1.44-3.68.25-2.66-3-3.49-2.93-4,1.89-5.26,1.68-3.93-3.28-5.06-3.51-2.85,1.83-3.68,1.85S55,42.21,54.09,41.51s-1.05-.81-1.66-.36A17,17,0,0,1,49.7,43c-.68.24-1.27-.15-2.17-.74s-1.27.4-1.81,1.29a17,17,0,0,0-1.87,4.79A15.82,15.82,0,0,1,43.17,51Z"/></g></svg>