<svg xmlns="http://www.w3.org/2000/svg" viewBox="0 0 151.06 151.06"><defs><style>.cls-1{fill:#fdd84d;}.cls-2{fill:#81351d;}.cls-3{fill:#727271;}.cls-4{fill:#f9db12;}.cls-5{fill:#313033;}</style></defs><title>overwatch_icons-all_heroes</title><g id="Brigitte"><rect id="bgc" class="cls-1" x="-0.04" y="-0.04" width="151.15" height="151.15"/><path id="right_hair" class="cls-2" d="M85.18,71.49s-.21-.17-.43,1.72a68.3,68.3,0,0,0-.23,9.11,3.24,3.24,0,0,1,1.3-1.58S86.9,88.55,87.54,91s3.94,16.75,6.32,20.83,5.26,8.35,6.88,13.65-.83,10.37-1.94,12.22-3.64,4.42-10.36,5.86a5.34,5.34,0,0,0,3.06,1.09,16.75,16.75,0,0,0,4.07-.43,14,14,0,0,1-3.7,2l-1.72.5a20.76,20.76,0,0,0,4.16.37,17.53,17.53,0,0,0,10.26-3.23,11.12,11.12,0,0,0,4.85-7.56c.07-1.09.64-5-.19-8.24s-1.46-4.85-1.46-4.85a10,10,0,0,1,3,3.87c1.22,2.64.67-1.6.64-2.43a36.89,36.89,0,0,0-3.32-10.25c-1.88-3.28-6.16-8.9-7-10.14a73.27,73.27,0,0,1-6-9.71c-1.88-4-4.15-8.65-4.69-11.68A75.73,75.73,0,0,1,89.92,73Z"/><path id="hair" class="cls-2" d="M144,102.77s-3.32-1.41-5-1.92-6.51-3.11-11.53-7.45-5.79-5.57-7.24-7.83S114.29,75,113.78,72.13c0,0,6,8,8.55,11.15a43.41,43.41,0,0,0,6.13,6.29c.25.09.36-.14-.07-.85a74.1,74.1,0,0,1-6.61-19.15c-1.54-9.06-.32-10.72-1.73-17S115.78,39.48,112,35a72.61,72.61,0,0,0-6.26-6.74,52.1,52.1,0,0,1,8.91,3.42l4.24,2.17A114.4,114.4,0,0,0,111,23.11c-3-3.24-13.32-15.11-29.4-18S62.67,7.06,58.8,11c0,0-12.85,3.45-17.92,10.93,0,0,1.75,6.94,9.32,12.35l-5.29,7.55A10.42,10.42,0,0,0,41,45.7c-1.28,2.49-1,3-2.36,3.42A13.94,13.94,0,0,0,35,50.9c-.7.58-.8,2-.9,3.77s-.79,9-.86,9.83.93,16,.16,19.5-.7,5.23-10,13.53-11.44,11.7-13.7,21a21.68,21.68,0,0,0,3.75,18.21,28.79,28.79,0,0,0,8.94,7,13.46,13.46,0,0,1-2.14-3.17s10,5.43,13,4.35c0,0-.4.08-4.47-2.2s-7.63-5.68-9.1-9.78-2-9.43.61-17.17,7.79-13.53,9.45-15.45a34.71,34.71,0,0,0,6-9.66A33.11,33.11,0,0,0,37.71,79.4a5.9,5.9,0,0,1,1.56,1.47s.12-4-.15-7.47A18,18,0,0,1,40.9,64s3.64,1.53,5.56,1.44A19.81,19.81,0,0,1,47,60.8a21.08,21.08,0,0,1,4.5,2.33c3.35,2,10.88,5.55,10.88,5.55a19.59,19.59,0,0,1,3.07-6.32l3.09,2.81s1-.26,3-2.62,2-1.46,2-.95,0,3.76,0,3.76a31.78,31.78,0,0,0,5.64-2l1,2.69a19.21,19.21,0,0,1,3.55.63A10.52,10.52,0,0,0,85,71.07l4.73-6.89s.35-3.67.41-6.41-1.05-5.27-4.82-7c0,0-2.94-6.71-4.18-7.54,0,0,2.11.87,4.4,5.88l5.78,4.59v6.45a36.9,36.9,0,0,1,2.55,3.7c.83,1.5-.28,5.59-.28,5.59A49.81,49.81,0,0,0,101.82,82c5.4,6,15,13,17.36,14.51a40.89,40.89,0,0,0,17,6.13C144.8,103.7,144,102.77,144,102.77ZM72.44,37.45a9.67,9.67,0,0,0-2.22-1.56c-1.25-.62-7.23-2.35-9.91-2.3a20.32,20.32,0,0,0-7.77,1.85C51.4,36.19,49.33,38,49.33,38a57.06,57.06,0,0,1,8.42-10.51c3-2.75,3.66-3,4.28-2.9s5,4.34,7.38,7.28,4.92,6.68,4.92,6.68A10.57,10.57,0,0,1,72.44,37.45Z"/><g id="right-hair_tie"><path class="cls-3" d="M92.24,64.85S91.46,62.7,91,61.77s-.66-1.07-1.22-.43-3.74,5.34-4.08,6a14.68,14.68,0,0,0-.49,6A19.65,19.65,0,0,0,86.68,78a.3.3,0,0,0,.49.1c.43-.41,1.2-1.13,1.73-1.6.77-.68,1.15-.7,1.47-1.72S92.61,66.53,92.24,64.85Z"/><path class="cls-4" d="M90.44,69a6.55,6.55,0,0,0-.26-1.65c-.22-.54-.41-.6-.65-.38s-.87.89-1.54,1.5a3.43,3.43,0,0,0-1.37,2.71,4.67,4.67,0,0,0,.77,3c.44.56.83.1,1.14-.19A6.61,6.61,0,0,0,90,71.44,11.15,11.15,0,0,0,90.44,69Z"/></g><g id="left-hair_tie"><path class="cls-3" d="M32.43,61.65a.47.47,0,0,1,.55.15l1.58,2.09a21.42,21.42,0,0,1,2.62,3.66,24.41,24.41,0,0,1,1.21,4.58c-.06.32-.68,1.38-1.08,2.34s-.88,2-1,2.32,0,.7-.59.36a9.85,9.85,0,0,1-2.83-2.53c-.7-1.09-1.57-4.75-2-6.68a16.35,16.35,0,0,1-.53-3.23,4.9,4.9,0,0,1,1.15-2.44A3.61,3.61,0,0,1,32.43,61.65Z"/><path class="cls-4" d="M33.21,73.2a8.62,8.62,0,0,0-.16-1.54,17.41,17.41,0,0,0-.84-2.4c-.11-.26.56-1.55.78-2.11s.4-.19.84.38A10.48,10.48,0,0,1,36,70a3.39,3.39,0,0,1,.08,2.66,11.17,11.17,0,0,0-.56,1.48c-.08.38-.06.53-.39.42A17.32,17.32,0,0,1,33.21,73.2Z"/></g><path id="hair_piece-black" class="cls-5" d="M61.61,28.11s3.76,1.87,8.61,7.78a60.22,60.22,0,0,0-10.42.21s-4-2.37-7.26-.66C52.54,35.44,58.58,28.83,61.61,28.11Z"/><path id="hair_tie-grey" class="cls-3" d="M44.92,41.79a4.86,4.86,0,0,1,.85-.35L47,39.29,49.38,38a67.26,67.26,0,0,1,7.9-10c3.86-3.74,4.45-3.37,4.76-3.34a46.22,46.22,0,0,1,5.38,5c1.41,1.55,6,7.06,6.85,8.86l2.61,1.1A55,55,0,0,0,70,28.87a91.93,91.93,0,0,0-7.44-7.69c-.39-.31-.47-.66-.81-.58A33,33,0,0,0,55.44,26,73.55,73.55,0,0,0,44.92,41.79Z"/><path id="collar" class="cls-5" d="M39.22,94.89a40.65,40.65,0,0,0,2.3,5.62c1.58,3.19,7.75,10.77,13,14.17s9.24,2.09,11.36.94A46.08,46.08,0,0,0,76.27,107c3.06-3.6,3.6-4,4.46-6.06a35.77,35.77,0,0,0,1.73-5.09c.11-.64.14-1.17.83-.82s1.42,1,2.87,2,1.55.84,1.82,2.68a66,66,0,0,0,2.07,7.61c.66,2,1.93,5.73,3.27,7.48s1.33,1.49,1.25,2a7.15,7.15,0,0,1-1.2,2c-.46.68-1.58,2.44-1.83,2.89s-.26.65-1,.63-3-.32-3-.32a46.92,46.92,0,0,1-5.44,6.23c-3.06,2.87-5.47,4.67-6.75,5.23s-2.15-1.45-2.15-1.45h-24a5.6,5.6,0,0,1-.88.85c-.55.43-.8,1-1.76.64a37.29,37.29,0,0,1-7.83-6.37c-2.17-2.52-4-5.52-4.16-5.51s-1.57.58-2.43.82-1,0-1.47-.58a21.55,21.55,0,0,1-4-7c-1.06-3.56-1.17-6.24.4-8.87a40.39,40.39,0,0,1,5.79-7.12c1-.88,2.15-1.18,4.08-2.57A12.43,12.43,0,0,1,39.22,94.89Z"/></g></svg>