<svg xmlns="http://www.w3.org/2000/svg" viewBox="0 0 151.06 151.06"><defs><style>.cls-1{fill:#7259a5;}.cls-2{fill:#cfd0d0;}.cls-3{fill:#191a1c;}.cls-4{fill:#242524;}.cls-5{fill:#f15b24;}</style></defs><title>overwatch_icons-all_heroes</title><g id="Moira"><rect id="bgc" class="cls-1" x="-0.04" y="-0.04" width="151.15" height="151.15"/><path id="eye_tattoo" class="cls-2" d="M100.32,92.72c-.76-1.87-2.08-4.89-2.08-4.89s-.56-.21-3,1.83-13.19,12.51-15.11,15.49a11,11,0,0,0-1.4,6.68s4.34,3.32,7.87,6.51,4.09,5.45,4.09,5.45,3.19-3.41,5.53-6.47,3.7-6.64,5-12.89S101.09,94.6,100.32,92.72Zm-5.23,16.45c-1.75,1.66-2.09,1.62-3.34,1.83a34.24,34.24,0,0,1-4,.19s-1.45-1.7-3.13-1.62a10.55,10.55,0,0,0-3.9,1.47s1.73-1.76,2.73-2.92.74-1.65,2.93-2,4.69.13,7.3-.09a13.21,13.21,0,0,0,4.3-1A15.15,15.15,0,0,1,95.09,109.17Z"/><g id="eyebrow"><path class="cls-3" d="M81.56,97.28s1-2.49,1.42-3.73a8.29,8.29,0,0,1,1.45-3c.72-.8,1-1.48,1.47-1.48a10,10,0,0,1,2.68,1.19c.36.27,1.34.63.55,1.36S83,96.23,81.56,97.28Z"/><path class="cls-3" d="M66.37,97.28s-1-2.49-1.43-3.73a8.13,8.13,0,0,0-1.45-3c-.72-.8-1-1.48-1.46-1.48a10.05,10.05,0,0,0-2.69,1.19c-.36.27-1.34.63-.55,1.36S64.9,96.23,66.37,97.28Z"/></g><path id="left-helm" class="cls-4" d="M52.31,116.33s-.73-2.62-1.66-5a69.82,69.82,0,0,1-2.17-8,17,17,0,0,0-2.54-9.49,70.24,70.24,0,0,1-5.51-11.24c-.79-2-1-24.34-1-24.34l-5.78,5.65,1.82,30s6.16,6.54,8.91,9.58a19.12,19.12,0,0,1,3.94,6.92A16.88,16.88,0,0,0,52.31,116.33Z"/><path id="right-helm" class="cls-4" d="M98.75,116.33s.73-2.62,1.66-5a69.82,69.82,0,0,0,2.17-8,17,17,0,0,1,2.54-9.49,70.24,70.24,0,0,0,5.51-11.24c.79-2,1-24.34,1-24.34l5.78,5.65-1.82,30s-6.16,6.54-8.9,9.58a19,19,0,0,0-4,6.92A16.88,16.88,0,0,1,98.75,116.33Z"/><path id="hair" class="cls-5" d="M49.09,103s-2.68-9.19-4.17-13.93S41.64,82,39.39,79.91s-6.73-5.4-6.73-5.4,2.73-2.85,3.45-4.81,2.13-6,1.87-21.27c0,0,2.17-1.75,7.62-3.58L50.15,32.3a72.89,72.89,0,0,0,7.75,0c3.1-.26,3.19-.56,3.19-.56a34,34,0,0,1,6.38-6.25c4.6-3.66,9.38-7.38,12.68-7.38H93.26A17.11,17.11,0,0,0,98,17.23a22.51,22.51,0,0,1-3.19,2.2c-2.13,1.25-5.76,3.46-6.68,5.19s-2.57,6.47-2.57,6.47a19.74,19.74,0,0,1,5.49-1.9c2.59-.36,3.25-.17,4.72.58s2.21,1.89,4.36,2.66,2.51.8,4.66,1.4,5.94,4.06,7.19,5,1.51,1.68,4.75,1.44a95.51,95.51,0,0,0,9.47-1.57l-14,9.08a40.17,40.17,0,0,0,.3,6.11c.36,1.38,1.38,2.43,2.21,3.83a44.32,44.32,0,0,1,2.17,5.38l12.32-4.19a28.79,28.79,0,0,1-5.66,5.94c-3,2.08-5.55,7.68-6.7,9.06s-4.49,5.85-6.49,8.24-4.3,4.19-5.19,7.85-2.88,12.4-2.88,12.4l.51-12a15,15,0,0,1-1.1-5.71c.11-2.91-.2-5.46-.68-6.1s-2.17-.61-2.17-.61,2.55-3.88,1-3.86-8,2.73-8,2.73,1.76-4.39,1.47-5.22a58.34,58.34,0,0,1-7.58,2.3,19.78,19.78,0,0,0-7.53,3.45l-.72-2.81-5.24,6s-14.17-9.06-14.61-9.26a47.17,47.17,0,0,1,.51,5.84l-7.62-.75s1.41,4.19,1.54,4.92c0,0-2-1.36-2.64-.58S48.67,83,48.83,86s.27,4.57-.17,5.25S48.28,97.2,49.09,103Z"/></g></svg>