<svg xmlns="http://www.w3.org/2000/svg" viewBox="0 0 151.06 151.06"><defs><style>.cls-1{fill:#5d7f80;}.cls-2{fill:#f0d19e;}.cls-3{fill:#fffef7;}.cls-4{fill:#a87365;}.cls-5,.cls-6{fill:none;stroke:#a87365;stroke-miterlimit:10;stroke-width:2px;}.cls-5{stroke-linecap:round;}.cls-7{fill:#f6ad99;}.cls-8{fill:#eb8970;}</style></defs><title>overwatch_icons-all_heroes</title><g id="Wrecking_Ball" data-name="Wrecking Ball"><rect id="bgc" class="cls-1" x="-0.04" y="-0.04" width="151.15" height="151.15"/><path id="head" class="cls-2" d="M137.29,39.84c-1.15-3.94-5.36-10.48-13.27-14.18s-10-2.3-15.83,4.21S97.59,56,97.59,56c-6.38-6.25-22.06-7-22.06-7s-15.67.77-22.06,7c0,0-4.72-19.66-10.59-26.17S35,22,27.05,25.66,14.92,35.9,13.77,39.84,10.2,50.17,12.49,55.15s12.9,14,25,16.08c0,0-11.88,16.86-12.13,28.09s9.19,19.28,14.3,21.45,14.5,6.38,35.84,6.38,30.74-4.21,35.85-6.38,14.55-10.22,14.3-21.45-12.13-28.09-12.13-28.09c12.13-2,22.72-11.1,25-16.08S138.44,43.79,137.29,39.84Z"/><g id="face_details"><g id="muzzle"><path class="cls-3" d="M75.53,85.2c-6.21.32-17.72,2.63-25,14.46-10.3,16.85-1.74,24.43-1.74,24.43,5.84,1.62,14.23,3.06,26.69,3.06s20.69-1.41,26.52-3"/><path class="cls-3" d="M102.05,124.13s8.56-7.57-1.74-24.42A30.15,30.15,0,0,0,75.53,85.2"/></g><path id="l-brow" class="cls-3" d="M51.75,78.89,51,72a1.81,1.81,0,0,1,3.13-1.42L69.05,86.68l-6.91,5L46,85.08a2.25,2.25,0,0,1,.1-4.2Z"/><path id="r-brow" class="cls-3" d="M99.28,78.89,100,72a1.81,1.81,0,0,0-3.12-1.42L82,86.68l6.91,5L105,85.08a2.25,2.25,0,0,0-.1-4.2Z"/><path id="head_color" class="cls-3" d="M89.39,51.56A59.9,59.9,0,0,0,75.53,49a60.84,60.84,0,0,0-13.39,2.39s3.09,16.06,13.39,16.06S89.39,51.56,89.39,51.56Z"/></g><g id="eyes"><circle class="cls-4" cx="58.51" cy="93.45" r="5.72"/><circle class="cls-4" cx="92.64" cy="93.45" r="5.72"/></g><g id="mouth"><path class="cls-5" d="M66.11,105.57a6,6,0,0,0,5.59,3.8c4.27,0,4-3.8,4-3.8a3.78,3.78,0,0,0,3.92,3.8c3.9,0,5.91-3.8,5.91-3.8"/><path class="cls-6" d="M71.7,109.37,72.86,114a1.77,1.77,0,0,0,1.72,1.34h2a2,2,0,0,0,1.88-1.47l1.1-4.5"/></g><path id="nose" class="cls-7" d="M75.53,98.62a35,35,0,0,0-5.81.92c-1.37.55-.77,2.49-.29,2.87s2.12,3.74,6.1,3.52,4.62-1.6,5.49-2.49,2.26-2.43,1.46-3.32S79.53,98.55,75.53,98.62Z"/><path id="l-ear" class="cls-8" d="M45.05,55.53s-1-5.42-2-10.21-2-8.43-4.85-10.79-4.73-2.93-8.49-1.72-7.49,3.49-11.45,8.13-4.72,8.34-4.38,11.4a24.62,24.62,0,0,0,4.94,11.28A36.69,36.69,0,0,0,29,72.38a46.8,46.8,0,0,0,6.34,2.47l2.34-3.79s-7-4.63-6.59-8.89a18.14,18.14,0,0,0,7.66.89s-5.24-6.89-5.28-10.59.85-3.24,2.55-1.92S43.64,56.55,45.05,55.53Z"/><path id="r-ear" class="cls-8" d="M106,55.53s1-5.42,2-10.21,2-8.43,4.85-10.79,4.72-2.93,8.49-1.72,7.49,3.49,11.44,8.13,4.73,8.34,4.39,11.4a24.73,24.73,0,0,1-4.94,11.28,36.71,36.71,0,0,1-10.13,8.76,46.8,46.8,0,0,1-6.34,2.47l-2.34-3.79s7-4.63,6.6-8.89a18.18,18.18,0,0,1-7.66.89s5.23-6.89,5.27-10.59-.85-3.24-2.55-1.92S107.4,56.55,106,55.53Z"/><g id="whiskers"><line class="cls-5" x1="20.98" y1="90.64" x2="34.71" y2="95.68"/><line class="cls-5" x1="17.98" y1="106.21" x2="35.6" y2="104.68"/><line class="cls-5" x1="38.73" y1="113.87" x2="26.09" y2="121.72"/><line class="cls-5" x1="130.56" y1="90.64" x2="116.84" y2="95.68"/><line class="cls-5" x1="133.56" y1="106.21" x2="115.94" y2="104.68"/><line class="cls-5" x1="112.82" y1="113.87" x2="125.46" y2="121.72"/></g></g></svg>